<mxfile host="app.diagrams.net" agent="Mozilla/5.0 (Windows NT 10.0; Win64; x64) AppleWebKit/537.36 (KHTML, like Gecko) Chrome/123.0.0.0 Safari/537.36" version="26.0.16">
  <diagram name="Page-1" id="eMf5RbJ0GtJEy-FBWEmN">
    <mxGraphModel dx="2074" dy="1178" grid="1" gridSize="10" guides="1" tooltips="1" connect="1" arrows="1" fold="1" page="1" pageScale="1" pageWidth="850" pageHeight="1100" math="0" shadow="0">
      <root>
        <mxCell id="0" />
        <mxCell id="1" parent="0" />
        <mxCell id="exWIQ_J7V7nzDXM_W4dL-20" value="" style="rounded=0;whiteSpace=wrap;html=1;" vertex="1" parent="1">
          <mxGeometry width="850" height="1100" as="geometry" />
        </mxCell>
        <mxCell id="exWIQ_J7V7nzDXM_W4dL-1" value="&lt;font style=&quot;font-size: 16px;&quot;&gt;Advising Website&lt;/font&gt;" style="rounded=0;whiteSpace=wrap;html=1;" vertex="1" parent="1">
          <mxGeometry x="95" y="350" width="160" height="70" as="geometry" />
        </mxCell>
        <mxCell id="exWIQ_J7V7nzDXM_W4dL-2" value="" style="rounded=0;whiteSpace=wrap;html=1;" vertex="1" parent="1">
          <mxGeometry x="75" y="360" width="30" height="20" as="geometry" />
        </mxCell>
        <mxCell id="exWIQ_J7V7nzDXM_W4dL-3" value="" style="rounded=0;whiteSpace=wrap;html=1;" vertex="1" parent="1">
          <mxGeometry x="75" y="390" width="30" height="20" as="geometry" />
        </mxCell>
        <mxCell id="exWIQ_J7V7nzDXM_W4dL-7" value="&lt;font style=&quot;font-size: 16px;&quot;&gt;MySQL Database&lt;/font&gt;" style="rounded=0;whiteSpace=wrap;html=1;" vertex="1" parent="1">
          <mxGeometry x="345" y="350" width="160" height="70" as="geometry" />
        </mxCell>
        <mxCell id="exWIQ_J7V7nzDXM_W4dL-8" value="" style="rounded=0;whiteSpace=wrap;html=1;" vertex="1" parent="1">
          <mxGeometry x="325" y="360" width="30" height="20" as="geometry" />
        </mxCell>
        <mxCell id="exWIQ_J7V7nzDXM_W4dL-9" value="" style="rounded=0;whiteSpace=wrap;html=1;" vertex="1" parent="1">
          <mxGeometry x="325" y="390" width="30" height="20" as="geometry" />
        </mxCell>
        <mxCell id="exWIQ_J7V7nzDXM_W4dL-10" value="&lt;font style=&quot;font-size: 16px;&quot;&gt;LlamaParse and PDFPlumber Program&lt;/font&gt;" style="rounded=0;whiteSpace=wrap;html=1;" vertex="1" parent="1">
          <mxGeometry x="595" y="350" width="180" height="70" as="geometry" />
        </mxCell>
        <mxCell id="exWIQ_J7V7nzDXM_W4dL-11" value="" style="rounded=0;whiteSpace=wrap;html=1;" vertex="1" parent="1">
          <mxGeometry x="575" y="360" width="30" height="20" as="geometry" />
        </mxCell>
        <mxCell id="exWIQ_J7V7nzDXM_W4dL-12" value="" style="rounded=0;whiteSpace=wrap;html=1;" vertex="1" parent="1">
          <mxGeometry x="575" y="390" width="30" height="20" as="geometry" />
        </mxCell>
        <mxCell id="exWIQ_J7V7nzDXM_W4dL-15" value="" style="endArrow=halfCircle;html=1;rounded=0;exitX=1;exitY=0.5;exitDx=0;exitDy=0;endFill=0;" edge="1" parent="1" source="exWIQ_J7V7nzDXM_W4dL-1">
          <mxGeometry width="50" height="50" relative="1" as="geometry">
            <mxPoint x="295" y="460" as="sourcePoint" />
            <mxPoint x="315" y="385" as="targetPoint" />
          </mxGeometry>
        </mxCell>
        <mxCell id="exWIQ_J7V7nzDXM_W4dL-16" value="" style="endArrow=none;html=1;rounded=0;entryX=0;entryY=0.5;entryDx=0;entryDy=0;endFill=0;startFill=0;startArrow=oval;endSize=6;strokeWidth=1;startSize=8;" edge="1" parent="1" target="exWIQ_J7V7nzDXM_W4dL-7">
          <mxGeometry width="50" height="50" relative="1" as="geometry">
            <mxPoint x="315" y="385" as="sourcePoint" />
            <mxPoint x="325" y="380" as="targetPoint" />
          </mxGeometry>
        </mxCell>
        <mxCell id="exWIQ_J7V7nzDXM_W4dL-17" value="" style="endArrow=halfCircle;html=1;rounded=0;exitX=1;exitY=0.5;exitDx=0;exitDy=0;endFill=0;" edge="1" parent="1">
          <mxGeometry width="50" height="50" relative="1" as="geometry">
            <mxPoint x="505" y="384.5" as="sourcePoint" />
            <mxPoint x="565" y="384.5" as="targetPoint" />
          </mxGeometry>
        </mxCell>
        <mxCell id="exWIQ_J7V7nzDXM_W4dL-18" value="" style="endArrow=none;html=1;rounded=0;entryX=0;entryY=0.5;entryDx=0;entryDy=0;endFill=0;startFill=0;startArrow=oval;endSize=6;strokeWidth=1;startSize=8;" edge="1" parent="1">
          <mxGeometry width="50" height="50" relative="1" as="geometry">
            <mxPoint x="565" y="384.5" as="sourcePoint" />
            <mxPoint x="595" y="384.5" as="targetPoint" />
          </mxGeometry>
        </mxCell>
        <mxCell id="exWIQ_J7V7nzDXM_W4dL-19" value="&lt;font style=&quot;font-size: 30px;&quot;&gt;&lt;b style=&quot;&quot;&gt;Website-Database-LlamaParse Data Component Diagram&lt;/b&gt;&lt;/font&gt;" style="text;html=1;align=center;verticalAlign=middle;whiteSpace=wrap;rounded=0;" vertex="1" parent="1">
          <mxGeometry y="180" width="850" height="100" as="geometry" />
        </mxCell>
      </root>
    </mxGraphModel>
  </diagram>
</mxfile>
